<?xml version="1.0" encoding="utf-8"?>
<!-- Generator: Adobe Illustrator 19.2.1, SVG Export Plug-In . SVG Version: 6.00 Build 0)  -->
<svg version="1.1" xmlns="http://www.w3.org/2000/svg" xmlns:xlink="http://www.w3.org/1999/xlink" x="0px" y="0px"
	 viewBox="0 0 2304 1296" style="enable-background:new 0 0 2304 1296;" xml:space="preserve">
<style type="text/css">
	.st0{fill:#FFFFFF;}
	.st1{clip-path:url(#SVGID_2_);}
	.st2{fill:#231F20;}
	.st3{clip-path:url(#SVGID_4_);}
</style>
<g id="Layer_2">
</g>
<g id="Layer_1">
	<g>
		<path class="st0" d="M1399.2,1058.1h-496V336.4h496V1058.1z M906.2,1055.1h490V339.4h-490V1055.1z"/>
	</g>
	<g>
		<defs>
			<rect id="SVGID_1_" x="958.8" y="392.1" width="384.9" height="355.5"/>
		</defs>
		<clipPath id="SVGID_2_">
			<use xlink:href="#SVGID_1_"  style="overflow:visible;"/>
		</clipPath>
		<g class="st1">
			<g>
				<rect x="921.9" y="237.8" class="st0" width="0.5" height="664.1"/>
			</g>
			<g>
				<rect x="924.8" y="237.8" class="st0" width="0.5" height="664.1"/>
			</g>
			<g>
				<rect x="927.7" y="237.8" class="st0" width="0.5" height="664.1"/>
			</g>
			<g>
				<rect x="930.5" y="237.8" class="st0" width="0.5" height="664.1"/>
			</g>
			<g>
				<rect x="933.4" y="237.8" class="st0" width="0.5" height="664.1"/>
			</g>
			<g>
				<rect x="936.3" y="237.8" class="st0" width="0.5" height="664.1"/>
			</g>
			<g>
				<rect x="939.2" y="237.8" class="st0" width="0.5" height="664.1"/>
			</g>
			<g>
				<rect x="942.1" y="237.8" class="st0" width="0.5" height="664.1"/>
			</g>
			<g>
				<rect x="944.9" y="237.8" class="st0" width="0.5" height="664.1"/>
			</g>
			<g>
				<rect x="947.8" y="237.8" class="st0" width="0.5" height="664.1"/>
			</g>
			<g>
				<rect x="950.7" y="237.8" class="st0" width="0.5" height="664.1"/>
			</g>
			<g>
				<rect x="953.6" y="237.8" class="st0" width="0.5" height="664.1"/>
			</g>
			<g>
				<rect x="956.5" y="237.8" class="st0" width="0.5" height="664.1"/>
			</g>
			<g>
				<rect x="959.3" y="237.8" class="st0" width="0.5" height="664.1"/>
			</g>
			<g>
				<rect x="962.2" y="237.8" class="st0" width="0.5" height="664.1"/>
			</g>
			<g>
				<rect x="965.1" y="237.8" class="st0" width="0.5" height="664.1"/>
			</g>
			<g>
				<rect x="968" y="237.8" class="st0" width="0.5" height="664.1"/>
			</g>
			<g>
				<rect x="970.9" y="237.8" class="st0" width="0.5" height="664.1"/>
			</g>
			<g>
				<rect x="973.8" y="237.8" class="st0" width="0.5" height="664.1"/>
			</g>
			<g>
				<rect x="976.6" y="237.8" class="st0" width="0.5" height="664.1"/>
			</g>
			<g>
				<rect x="979.5" y="237.8" class="st0" width="0.5" height="664.1"/>
			</g>
			<g>
				<rect x="982.4" y="237.8" class="st0" width="0.5" height="664.1"/>
			</g>
			<g>
				<rect x="985.3" y="237.8" class="st0" width="0.5" height="664.1"/>
			</g>
			<g>
				<rect x="988.2" y="237.8" class="st0" width="0.5" height="664.1"/>
			</g>
			<g>
				<rect x="991" y="237.8" class="st0" width="0.5" height="664.1"/>
			</g>
			<g>
				<rect x="993.9" y="237.8" class="st0" width="0.5" height="664.1"/>
			</g>
			<g>
				<rect x="996.8" y="237.8" class="st0" width="0.5" height="664.1"/>
			</g>
			<g>
				<rect x="999.7" y="237.8" class="st0" width="0.5" height="664.1"/>
			</g>
			<g>
				<rect x="1002.6" y="237.8" class="st0" width="0.5" height="664.1"/>
			</g>
			<g>
				<rect x="1005.5" y="237.8" class="st0" width="0.5" height="664.1"/>
			</g>
			<g>
				<rect x="1008.3" y="237.8" class="st0" width="0.5" height="664.1"/>
			</g>
			<g>
				<rect x="1011.2" y="237.8" class="st0" width="0.5" height="664.1"/>
			</g>
			<g>
				<rect x="1014.1" y="237.8" class="st0" width="0.5" height="664.1"/>
			</g>
			<g>
				<rect x="1017" y="237.8" class="st0" width="0.5" height="664.1"/>
			</g>
			<g>
				<rect x="1019.9" y="237.8" class="st0" width="0.5" height="664.1"/>
			</g>
			<g>
				<rect x="1022.7" y="237.8" class="st0" width="0.5" height="664.1"/>
			</g>
			<g>
				<rect x="1025.6" y="237.8" class="st0" width="0.5" height="664.1"/>
			</g>
			<g>
				<rect x="1028.5" y="237.8" class="st0" width="0.5" height="664.1"/>
			</g>
			<g>
				<rect x="1031.4" y="237.8" class="st0" width="0.5" height="664.1"/>
			</g>
			<g>
				<rect x="1034.3" y="237.8" class="st0" width="0.5" height="664.1"/>
			</g>
			<g>
				<rect x="1037.2" y="237.8" class="st0" width="0.5" height="664.1"/>
			</g>
			<g>
				<rect x="1040" y="237.8" class="st0" width="0.5" height="664.1"/>
			</g>
			<g>
				<rect x="1042.9" y="237.8" class="st0" width="0.5" height="664.1"/>
			</g>
			<g>
				<rect x="1045.8" y="237.8" class="st0" width="0.5" height="664.1"/>
			</g>
			<g>
				<rect x="1048.7" y="237.8" class="st0" width="0.5" height="664.1"/>
			</g>
			<g>
				<rect x="1051.6" y="237.8" class="st0" width="0.5" height="664.1"/>
			</g>
			<g>
				<rect x="1054.4" y="237.8" class="st0" width="0.5" height="664.1"/>
			</g>
			<g>
				<rect x="1057.3" y="237.8" class="st0" width="0.5" height="664.1"/>
			</g>
			<g>
				<rect x="1060.2" y="237.8" class="st0" width="0.5" height="664.1"/>
			</g>
			<g>
				<rect x="1063.1" y="237.8" class="st0" width="0.5" height="664.1"/>
			</g>
			<g>
				<rect x="1066" y="237.8" class="st0" width="0.5" height="664.1"/>
			</g>
			<g>
				<rect x="1068.9" y="237.8" class="st0" width="0.5" height="664.1"/>
			</g>
			<g>
				<rect x="1071.7" y="237.8" class="st0" width="0.5" height="664.1"/>
			</g>
			<g>
				<rect x="1074.6" y="237.8" class="st0" width="0.5" height="664.1"/>
			</g>
			<g>
				<rect x="1077.5" y="237.8" class="st0" width="0.5" height="664.1"/>
			</g>
			<g>
				<rect x="1080.4" y="237.8" class="st0" width="0.5" height="664.1"/>
			</g>
			<g>
				<rect x="1083.3" y="237.8" class="st0" width="0.5" height="664.1"/>
			</g>
			<g>
				<rect x="1086.1" y="237.8" class="st0" width="0.5" height="664.1"/>
			</g>
			<g>
				<rect x="1089" y="237.8" class="st0" width="0.5" height="664.1"/>
			</g>
			<g>
				<rect x="1091.9" y="237.8" class="st0" width="0.5" height="664.1"/>
			</g>
			<g>
				<rect x="1094.8" y="237.8" class="st0" width="0.5" height="664.1"/>
			</g>
			<g>
				<rect x="1097.7" y="237.8" class="st0" width="0.5" height="664.1"/>
			</g>
			<g>
				<rect x="1100.5" y="237.8" class="st0" width="0.5" height="664.1"/>
			</g>
			<g>
				<rect x="1103.4" y="237.8" class="st0" width="0.5" height="664.1"/>
			</g>
			<g>
				<rect x="1106.3" y="237.8" class="st0" width="0.5" height="664.1"/>
			</g>
			<g>
				<rect x="1109.2" y="237.8" class="st0" width="0.5" height="664.1"/>
			</g>
			<g>
				<rect x="1112.1" y="237.8" class="st0" width="0.5" height="664.1"/>
			</g>
			<g>
				<rect x="1115" y="237.8" class="st0" width="0.5" height="664.1"/>
			</g>
			<g>
				<rect x="1117.8" y="237.8" class="st0" width="0.5" height="664.1"/>
			</g>
			<g>
				<rect x="1120.7" y="237.8" class="st0" width="0.5" height="664.1"/>
			</g>
			<g>
				<rect x="1123.6" y="237.8" class="st0" width="0.5" height="664.1"/>
			</g>
			<g>
				<rect x="1126.5" y="237.8" class="st0" width="0.5" height="664.1"/>
			</g>
			<g>
				<rect x="1129.4" y="237.8" class="st0" width="0.5" height="664.1"/>
			</g>
			<g>
				<rect x="1132.2" y="237.8" class="st0" width="0.5" height="664.1"/>
			</g>
			<g>
				<rect x="1135.1" y="237.8" class="st0" width="0.5" height="664.1"/>
			</g>
			<g>
				<rect x="1138" y="237.8" class="st0" width="0.5" height="664.1"/>
			</g>
			<g>
				<rect x="1140.9" y="237.8" class="st0" width="0.5" height="664.1"/>
			</g>
			<g>
				<rect x="1143.8" y="237.8" class="st0" width="0.5" height="664.1"/>
			</g>
			<g>
				<rect x="1146.7" y="237.8" class="st0" width="0.5" height="664.1"/>
			</g>
			<g>
				<rect x="1149.5" y="237.8" class="st0" width="0.5" height="664.1"/>
			</g>
			<g>
				<rect x="1152.4" y="237.8" class="st0" width="0.5" height="664.1"/>
			</g>
			<g>
				<rect x="1155.3" y="237.8" class="st0" width="0.5" height="664.1"/>
			</g>
			<g>
				<rect x="1158.2" y="237.8" class="st0" width="0.5" height="664.1"/>
			</g>
			<g>
				<rect x="1161.1" y="237.8" class="st0" width="0.5" height="664.1"/>
			</g>
			<g>
				<rect x="1163.9" y="237.8" class="st0" width="0.5" height="664.1"/>
			</g>
			<g>
				<rect x="1166.8" y="237.8" class="st0" width="0.5" height="664.1"/>
			</g>
			<g>
				<rect x="1169.7" y="237.8" class="st0" width="0.5" height="664.1"/>
			</g>
			<g>
				<rect x="1172.6" y="237.8" class="st0" width="0.5" height="664.1"/>
			</g>
			<g>
				<rect x="1175.5" y="237.8" class="st0" width="0.5" height="664.1"/>
			</g>
			<g>
				<rect x="1178.4" y="237.8" class="st0" width="0.5" height="664.1"/>
			</g>
			<g>
				<rect x="1181.2" y="237.8" class="st0" width="0.5" height="664.1"/>
			</g>
			<g>
				<rect x="1184.1" y="237.8" class="st0" width="0.5" height="664.1"/>
			</g>
			<g>
				<rect x="1187" y="237.8" class="st0" width="0.5" height="664.1"/>
			</g>
			<g>
				<rect x="1189.9" y="237.8" class="st0" width="0.5" height="664.1"/>
			</g>
			<g>
				<rect x="1192.8" y="237.8" class="st0" width="0.5" height="664.1"/>
			</g>
			<g>
				<rect x="1195.6" y="237.8" class="st0" width="0.5" height="664.1"/>
			</g>
			<g>
				<rect x="1198.5" y="237.8" class="st0" width="0.5" height="664.1"/>
			</g>
			<g>
				<rect x="1201.4" y="237.8" class="st0" width="0.5" height="664.1"/>
			</g>
			<g>
				<rect x="1204.3" y="237.8" class="st0" width="0.5" height="664.1"/>
			</g>
			<g>
				<rect x="1207.2" y="237.8" class="st0" width="0.5" height="664.1"/>
			</g>
			<g>
				<rect x="1210.1" y="237.8" class="st0" width="0.5" height="664.1"/>
			</g>
			<g>
				<rect x="1212.9" y="237.8" class="st0" width="0.5" height="664.1"/>
			</g>
			<g>
				<rect x="1215.8" y="237.8" class="st0" width="0.5" height="664.1"/>
			</g>
			<g>
				<rect x="1218.7" y="237.8" class="st0" width="0.5" height="664.1"/>
			</g>
			<g>
				<rect x="1221.6" y="237.8" class="st0" width="0.5" height="664.1"/>
			</g>
			<g>
				<rect x="1224.5" y="237.8" class="st0" width="0.5" height="664.1"/>
			</g>
			<g>
				<rect x="1227.3" y="237.8" class="st0" width="0.5" height="664.1"/>
			</g>
			<g>
				<rect x="1230.2" y="237.8" class="st0" width="0.5" height="664.1"/>
			</g>
			<g>
				<rect x="1233.1" y="237.8" class="st0" width="0.5" height="664.1"/>
			</g>
			<g>
				<rect x="1236" y="237.8" class="st0" width="0.5" height="664.1"/>
			</g>
			<g>
				<rect x="1238.9" y="237.8" class="st0" width="0.5" height="664.1"/>
			</g>
			<g>
				<rect x="1241.7" y="237.8" class="st0" width="0.5" height="664.1"/>
			</g>
			<g>
				<rect x="1244.6" y="237.8" class="st0" width="0.5" height="664.1"/>
			</g>
			<g>
				<rect x="1247.5" y="237.8" class="st0" width="0.5" height="664.1"/>
			</g>
			<g>
				<rect x="1250.4" y="237.8" class="st0" width="0.5" height="664.1"/>
			</g>
			<g>
				<rect x="1253.3" y="237.8" class="st0" width="0.5" height="664.1"/>
			</g>
			<g>
				<rect x="1256.2" y="237.8" class="st0" width="0.5" height="664.1"/>
			</g>
			<g>
				<rect x="1259" y="237.8" class="st0" width="0.5" height="664.1"/>
			</g>
			<g>
				<rect x="1261.9" y="237.8" class="st0" width="0.5" height="664.1"/>
			</g>
			<g>
				<rect x="1264.8" y="237.8" class="st0" width="0.5" height="664.1"/>
			</g>
			<g>
				<rect x="1267.7" y="237.8" class="st0" width="0.5" height="664.1"/>
			</g>
			<g>
				<rect x="1270.6" y="237.8" class="st0" width="0.5" height="664.1"/>
			</g>
			<g>
				<rect x="1273.4" y="237.8" class="st0" width="0.5" height="664.1"/>
			</g>
			<g>
				<rect x="1276.3" y="237.8" class="st0" width="0.5" height="664.1"/>
			</g>
			<g>
				<rect x="1279.2" y="237.8" class="st0" width="0.5" height="664.1"/>
			</g>
			<g>
				<rect x="1282.1" y="237.8" class="st0" width="0.5" height="664.1"/>
			</g>
			<g>
				<rect x="1285" y="237.8" class="st0" width="0.5" height="664.1"/>
			</g>
			<g>
				<rect x="1287.9" y="237.8" class="st0" width="0.5" height="664.1"/>
			</g>
			<g>
				<rect x="1290.7" y="237.8" class="st0" width="0.5" height="664.1"/>
			</g>
			<g>
				<rect x="1293.6" y="237.8" class="st0" width="0.5" height="664.1"/>
			</g>
			<g>
				<rect x="1296.5" y="237.8" class="st0" width="0.5" height="664.1"/>
			</g>
			<g>
				<rect x="1299.4" y="237.8" class="st0" width="0.5" height="664.1"/>
			</g>
			<g>
				<rect x="1302.3" y="237.8" class="st0" width="0.5" height="664.1"/>
			</g>
			<g>
				<rect x="1305.1" y="237.8" class="st0" width="0.5" height="664.1"/>
			</g>
			<g>
				<rect x="1308" y="237.8" class="st0" width="0.5" height="664.1"/>
			</g>
			<g>
				<rect x="1310.9" y="237.8" class="st0" width="0.5" height="664.1"/>
			</g>
			<g>
				<rect x="1313.8" y="237.8" class="st0" width="0.5" height="664.1"/>
			</g>
			<g>
				<rect x="1316.7" y="237.8" class="st0" width="0.5" height="664.1"/>
			</g>
			<g>
				<rect x="1319.6" y="237.8" class="st0" width="0.5" height="664.1"/>
			</g>
			<g>
				<rect x="1322.4" y="237.8" class="st0" width="0.5" height="664.1"/>
			</g>
			<g>
				<rect x="1325.3" y="237.8" class="st0" width="0.5" height="664.1"/>
			</g>
			<g>
				<rect x="1328.2" y="237.8" class="st0" width="0.5" height="664.1"/>
			</g>
			<g>
				<rect x="1331.1" y="237.8" class="st0" width="0.5" height="664.1"/>
			</g>
			<g>
				<rect x="1334" y="237.8" class="st0" width="0.5" height="664.1"/>
			</g>
			<g>
				<rect x="1336.8" y="237.8" class="st0" width="0.5" height="664.1"/>
			</g>
			<g>
				<rect x="1339.7" y="237.8" class="st0" width="0.5" height="664.1"/>
			</g>
			<g>
				<rect x="1342.6" y="237.8" class="st0" width="0.5" height="664.1"/>
			</g>
			<g>
				<rect x="1345.5" y="237.8" class="st0" width="0.5" height="664.1"/>
			</g>
			<g>
				<rect x="1348.4" y="237.8" class="st0" width="0.5" height="664.1"/>
			</g>
			<g>
				<rect x="1351.3" y="237.8" class="st0" width="0.5" height="664.1"/>
			</g>
			<g>
				<rect x="1354.1" y="237.8" class="st0" width="0.5" height="664.1"/>
			</g>
			<g>
				<rect x="1357" y="237.8" class="st0" width="0.5" height="664.1"/>
			</g>
			<g>
				<rect x="1359.9" y="237.8" class="st0" width="0.5" height="664.1"/>
			</g>
			<g>
				<rect x="1362.8" y="237.8" class="st0" width="0.5" height="664.1"/>
			</g>
			<g>
				<rect x="1365.7" y="237.8" class="st0" width="0.5" height="664.1"/>
			</g>
			<g>
				<rect x="1368.5" y="237.8" class="st0" width="0.5" height="664.1"/>
			</g>
			<g>
				<rect x="1371.4" y="237.8" class="st0" width="0.5" height="664.1"/>
			</g>
			<g>
				<rect x="1374.3" y="237.8" class="st0" width="0.5" height="664.1"/>
			</g>
		</g>
		<g class="st1">
			<path class="st0" d="M1340.7,395.1v349.5H961.8V395.1H1340.7 M1343.7,392.1H958.8v355.5h384.9V392.1L1343.7,392.1z"/>
		</g>
		<g class="st1">
			<g>
				<path class="st2" d="M1209.5,625.1c0,0,57.9,3,58.7,12.1c0.8,8.4-54.5,30.2-62.9,33.5c-0.5,0.2-0.9,0.6-1,1.2
					c-0.2,1.2-3,4.7-10.7,5.3c-12.6,1.1-79.8,0.9-92.2-1.7s-10.6-6.1-10.6-6.1s-52.7-17.9-51.8-27c0.9-9.1,51.8-13.8,51.8-13.8"/>
				<path class="st0" d="M1164.3,678.2c-24.3,0-55.1-0.7-62.9-2.3c-6.2-1.3-9.9-3-10.9-5.1c-0.2-0.5-0.3-0.9-0.2-1.2
					c-7.1-2.4-52.6-18.4-51.7-27.4c0.9-9.2,47-13.8,52.3-14.2l0.1,1c-14.1,1.3-50.7,6.2-51.4,13.3c-0.7,7.1,36.9,21.5,51.5,26.5
					l0.6,0.2l-0.3,0.5c0,0-0.1,0.3,0.1,0.9c0.5,1,2.5,2.9,10.1,4.5c12.1,2.5,79.4,2.8,92.1,1.7c7.2-0.6,10-3.9,10.2-4.9
					c0.1-0.7,0.6-1.3,1.3-1.5c31.5-12.3,63.1-27.2,62.6-33c-0.7-7.1-42.3-10.8-58.3-11.6l0.1-1c6,0.3,58.3,3.3,59.2,12.5
					c0.8,8.4-48.2,28.2-63.2,34c-0.4,0.1-0.6,0.4-0.7,0.8c-0.3,1.5-3.4,5.1-11.1,5.7C1189.2,678,1177.8,678.2,1164.3,678.2z"/>
			</g>
			<g>
				<path class="st2" d="M1193.6,649.3c6.7-5.9,13.7-15.7,18.9-32c11.7-37,9.1-45.4,9.1-45.4c0-4.7-31.4-10.3-72.4-10.3
					c-40.9,0-72.4,5.6-72.4,10.3c0,0-0.4,20.7,11.3,50.2c5.4,13.5,11.8,21.9,17.8,27.2"/>
				<path class="st0" d="M1193.9,649.7l-0.7-0.8c8-7,14.3-17.7,18.7-31.8c11.5-36.2,9.1-45,9.1-45.1l0-0.1c0-1.7-6.3-4.3-20.4-6.4
					c-14.2-2.2-32.5-3.4-51.5-3.4c-19,0-37.2,1.2-51.5,3.4c-14.1,2.2-20.4,4.8-20.4,6.4c0,0.2-0.3,21,11.2,50
					c4.6,11.7,10.6,20.8,17.7,27l-0.7,0.8c-7.2-6.3-13.2-15.6-17.9-27.4c-11.6-29.2-11.3-50.2-11.3-50.4c0-5.6,34.7-10.8,72.9-10.8
					c38,0,72.6,5.1,72.9,10.7c0.2,0.9,2.1,10.3-9.1,45.6C1208.4,631.7,1202,642.6,1193.9,649.7z"/>
			</g>
			<g>
				<path class="st2" d="M1234.4,606.9c-2,5.4-4.5,9.1-14.2,14.7c-9,5.2-15.6,0.3-20.5,7.5c-3.4,5.1-6.9,11.6-3.8,13
					c3.1,1.4,9.2-5.6,22-9.8c15-4.9,27.5-17.5,26.7-33.1c-1-19-16-18.9-24.1-18.8c-8.1,0.1-9.3,3-9.6,5.1c-0.3,2-1.4,11.8,3.2,11
					c4.6-0.9,1.7-6.9,12.7-6.9C1237.9,589.6,1236.5,601.6,1234.4,606.9z"/>
				<path class="st0" d="M1196.9,642.9c-0.4,0-0.7-0.1-1.1-0.2c-0.7-0.3-1.2-0.9-1.4-1.6c-0.8-2.8,2.2-8.2,4.9-12.1
					c2.9-4.2,6.3-4.5,10.2-4.8c3.1-0.3,6.6-0.6,10.5-2.8c9.2-5.3,11.8-8.9,13.9-14.5l0,0c1.1-3,2.5-9.6-0.2-13.6c-1.4-2-3.7-3-6.8-3
					c-6.5,0-7.9,2.2-9.1,4.1c-0.8,1.2-1.5,2.5-3.5,2.8c-1,0.2-1.8,0-2.5-0.7c-2.3-2.2-1.5-8.9-1.3-10.9c0.3-2.3,1.7-5.3,10.1-5.5
					c7.6-0.1,23.6-0.4,24.6,19.3c0.6,12.1-7.5,27.2-27,33.6c-6.4,2.1-11.2,5-14.7,7.1C1200.6,641.6,1198.5,642.9,1196.9,642.9z
					 M1234.9,607.1c-2.2,5.8-4.9,9.5-14.4,15c-4.1,2.4-7.7,2.7-10.9,3c-3.8,0.3-6.9,0.6-9.5,4.4c-3.6,5.3-5.3,9.4-4.8,11.3
					c0.1,0.5,0.4,0.8,0.8,1c1.3,0.6,3.6-0.8,6.7-2.7c3.5-2.1,8.3-5,14.9-7.2c19.1-6.2,27-20.8,26.4-32.6
					c-1-18.7-15.7-18.5-23.6-18.3c-8.4,0.1-8.9,3.3-9.1,4.6c-0.5,3.7-0.6,8.5,1,10c0.4,0.4,1,0.5,1.6,0.4c1.5-0.3,2.1-1.2,2.8-2.4
					c1.3-2,2.9-4.6,10-4.6c3.5,0,6.1,1.2,7.7,3.5C1237.5,596.9,1236.1,604,1234.9,607.1L1234.9,607.1z"/>
			</g>
			<g>
				<path class="st0" d="M1143.4,581c-18.9,0-34.3-1.2-50.6-2.5c-2.4-0.2-4.8-0.4-7.2-0.6l0.1-1c2.4,0.2,4.8,0.4,7.2,0.6
					c16.3,1.3,31.7,2.5,50.5,2.5c33.5,0,59.4-2.9,71.4-5.4l0.2,1C1202.9,578.1,1177,581,1143.4,581z"/>
			</g>
			<g>
				<path class="st0" d="M1148.1,651c-58.3,0-91.9-4.4-103.1-8.2c-1.8-0.6-2.7-1.4-2.6-2.4c0.1-3.1,10.6-6.2,12.7-6.8l0.3,1
					c-5,1.4-11.9,4.1-12,5.9c0,0.5,0.7,1,2,1.4c2.5,0.8,26.2,8.1,102.8,8.1c67.8,0,108.3-6.9,114.3-11.6l0.6,0.8
					C1255.7,644.9,1209.7,651,1148.1,651z"/>
			</g>
			<g>
				<path class="st0" d="M1152.7,673.9c-37.1,0-61.5-4-61.9-4l0.2-1c0.5,0.1,49.5,8,114.4,1.3l0.1,1
					C1186.2,673.1,1168.3,673.9,1152.7,673.9z"/>
			</g>
		</g>
		<g class="st1">
			<defs>
				<polygon id="SVGID_3_" points="1136.8,370 1075.5,447.3 1061.5,561.3 1109.5,576 1204.8,573.3 1286.1,553.3 1370.1,363.3 				
					"/>
			</defs>
			<clipPath id="SVGID_4_">
				<use xlink:href="#SVGID_3_"  style="overflow:visible;"/>
			</clipPath>
			<g class="st3">
				<g>
					<path class="st2" d="M1319.8,397.8c4-7,6.9-14.6,9.4-22.2c1.1-3.3,3.6-9,3.3-11.9c-0.1-1.3,0.5-2.2-1-2.8
						c-2.7-1.1-6.7,4.6-7.1,6.7c1.5-8.2,0.1-2.5-0.7-0.5c-0.6,1.4-1.1,2.9-1.7,4.3c-1.3,3.1-2.6,6.2-4.1,9.2c-0.3,0.7-0.7,1.3-1,2
						c1.1-4.4,1.7-9,0.9-13.2c-1-5.4-3.3-9.9-9-11.2c-0.3-0.1-0.6-0.1-0.9-0.2c-0.9-1.1-2.1-2-3.7-2.8c-3.2-1.5-7.3-1.8-10.5-0.3
						c-1.8,0.8-6,4.5-4.4,7c-0.5-0.8-1.9,3-2.6,4.9c-0.2-1.4-0.3-2.9-0.6-4.3c-0.9-5.5-6.8-8.8-12-8.9c-0.8,0-1.7,0.1-2.7,0.3
						c-1.2-0.5-2.5,0.2-3.7,1.4c-2.2,1.2-3.8,3.1-3.7,5.6c-0.2,0.5-0.3,0.9-0.4,1.2c-0.1,0.4-0.3,0.8-0.4,1.2
						c-0.1-0.6-0.2-1.2-0.3-1.7c-0.5-2.5-2.2-4.1-3.2-3.2c-4.6-7.7-16.6-12.2-23.5-5.4c-3.3,3.3-6.3,7.1-9,11.3
						c-0.1-2.6-0.5-4.9-1.1-7.1c0.3-2.7,0.5-5.8,0.2-6c-1-1.1-2-1-3.1-0.4c-0.7-1.2-1.4-2.4-2.1-3.6c-4-6.2-20.7-6.1-19.1,3.7
						c0.2,1.6,0.2,3.1-0.1,4.7c-1.1,0.5-2.2,1.2-2.6,1.5c-1.2,1.1-5.2,6-2.8,7.4c0.5,0.3,1,0.6,1.5,0.9c-1,1.9-2.1,3.8-3,5.5
						c-1.9,3.6-4,7.1-5.8,10.8c-0.1,0.2-0.3,0.3-0.3,0.4c-0.3,0.5-0.5,1-0.7,1.5c-1.1,2.2-2.2,4.8-2.5,7.2c-0.1,1.2,0,2.3,0.4,3.4
						c-1,3.4-2.2,6.7-3.6,10c-3.2,7.3-8,13.7-11.5,20.9c-5.3,10.8-3.6,21.9,3.9,31.2c3.7,4.6,8.4,8.4,13.4,11.6c2.4,1.6,6,2.9,8.1,5
						c3.7,3.7-3,8-6,9.6c-13.3,7-28.1,10.7-40.9,18.7c-6.5,4.1-11.9,9.2-16.6,14.9c-3.1,2-5.8,4.4-8.2,7.4c-3.1,1.2-6.2,2.4-9.2,3.7
						c-7.3,3-15.2,7.4-17.4,15.7c-3.4,12.7,6.5,23.9,18.2,26.9c1.1,6.4,2.9,12.8,2.2,19.2c-0.2,2.2,2.5,0.8,3.3,0.2
						c0.8-0.6,1.5-1.5,2-2.4c0.1-0.2,0.9-2.7,0.6-2.6c-2,0.7-3.3-9.8-3.7-13.7c0.1,0,0.2,0,0.3,0c0.4,0,1.1-1.5,0.8-1.5
						c-0.4,0-0.8-0.1-1.3-0.2c-0.5-5.5-0.6-11.1,0.4-16.5c1.6-8.5,5.6-16.7,12.5-22.1c3.6-2.8,7.6-4.6,11.9-6.1
						c-15.8,14.1-23.4,37.3-19.9,57.9c0.1,0.9,2.6,4.5,2.3,2.4c-4-25.7,9.4-49.5,30.5-63.1c-3.8,3.6-7.2,7.7-10.1,12.1
						c-10.7,16.3-12.7,36.4-5.5,54.4c0.9,2.2,2.9,3.8,4.6,1.7c1.8-2.3,0.4-7-0.5-9.3c-6.4-16,3.4-34.5,14.8-45.5
						c1.3-1.3,2.7-2.5,4.2-3.6c-2.6,2.5-4.9,5.5-6.7,9.1c-9.6,18.6-2.9,44.3,15.8,54.4c2.8,1.5,2.3-8.1,0.2-9.5
						c-7.3-4.7-13.9-12.1-14.4-21.1c-0.4-8.7,4.6-17.4,11.2-22.7c3.9-3.1,8.3-5.2,13-6.6c-10.4,8.2-14,24.2-14.8,36.9
						c0,0.6,1.4,2.3,1.4,2.1c1.3-8.3,2.4-16.6,6.1-24.2c3.3-6.8,8.2-11.1,13.3-16.2c0.9-0.2,1.8-0.3,2.7-0.4
						c0.4,0.3,0.9,0.4,1.4,0.3c1.2-0.2,2.4-0.5,3.6-0.8c9.3-0.8,18.9-0.4,27.5-1.1c4.2-0.3,8.5-0.8,12.7-1.5
						c0.2,0.7,0.9,1.6,1.2,1.8c0.8,0.7,1.4,1,2.1,1c-1.6,8.8-16.1,8.4-22.8,9.3c-8.7,1.2-18.7,2.6-26.6,6.7c-5.8,3-9.5,8.4-7.7,15.1
						c0.7,2.5,2,4.8,3.5,6.9c0.9,1.2,1.9,2.3,3,3.3c1.4,1.3,4.1,2.4,4.8,4.2c0.4,1,3-3,2.1-3.2c-6.1-1.6-13.3-7.4-11.2-14.5
						c1-3.2,3.4-5.6,6.2-7.2c5.6-3.4,12.5-4.7,18.8-6c7.1-1.5,14.5-1.9,21.4-3.6c5.7-1.4,10.1-5,9.9-11.2c0-0.4-0.4-1.6-1-1.9
						c1.2-0.6,2.4-1.1,3.7-1.6c0.1,0,0.1-0.2,0.1-0.4c12.1-2.6,23.9-7,33.9-14.4c6.1-4.5,11.4-10.4,13.8-17.6
						c2.8-4.7,4.9-9.9,6.3-14.6c4.1-14.1,3.2-29,1.8-43.5c-0.1-0.6-1.4-2.4-1.4-1.8c1.4,14.6,2.3,29.7-1.9,44
						c-0.9,2.9-2,5.8-3.3,8.6c0.6-7.4-1.5-14.9-4.4-21.7c-2-4.7-4.7-9.4-5.9-14.4c-1.1-4.9,0.2-9.9,2.2-14.4
						c2.6-5.9,6.4-11.2,10.7-16.1c4.8-1.9,9.8-3.5,14.3-6.1c9.6-5.6,16.6-14.6,20-25.1c0.4-1.1-2.2-4.4-2.4-3.7
						c-3.9,11-11.4,20.3-21.8,25.8c-0.4,0.2-0.8,0.4-1.2,0.6C1312,409.2,1316.3,403.8,1319.8,397.8z M1204.3,406.9
						c0.4-0.3,0.8-0.6,1.1-0.8c0.3-0.1,0.6-0.1,0.9-0.2c-1,3.6-1.8,7.2-2.4,10.9c-1.3,8.3-1.1,17,1.1,25.2c-2.7-3.1-5.5-6.4-7.3-10
						C1197.6,423.9,1200.3,413.9,1204.3,406.9z M1255.3,483.3c0.4-0.9,0.8-1.9,1.1-2.9c3-9,1.5-17.7-2.2-25.7c0-0.3,0-0.6,0-1
						c-0.1-1.9-0.2-3.8-0.3-5.7c1.7,3.1,3.7,5.9,6,8.7c4,4.7,9.1,8.8,6.1,15.2c-2.3,5-6.2,9.3-10.7,13.2
						C1255.3,484.5,1255.3,483.9,1255.3,483.3z M1213.4,435.2c2.1,7.9,7.1,14.4,10,21.7c-4.7-5.8-10.5-11-12.6-18.2
						c-1.5-5.1-1.3-10.6-0.4-16c0.2,0.7,0.4,1.4,0.7,2.1c0.2,0.4,0.4,0.8,0.6,1.2C1212,429.1,1212.6,432.2,1213.4,435.2z
						 M1247.3,410.4c1.1-1.2,2.1-2.5,3.1-3.8c-1.4,6.7-2.2,13.6-1.9,20.4c-1.3,4.4-2.7,8.8-3.4,13.3c-3.1-3.7-7.3-8.3-8-12.9
						C1236.1,421,1243.6,414.7,1247.3,410.4z M1148.5,508.4c12.3-8.8,27-12.9,40.4-19.4c4.5-2.1,11.5-5.3,11.4-11.2
						c0-4-2.9-7.5-6.2-9.5c-6-3.7-12-6.9-17-11.9c-6.9-6.9-8.7-15.3-5.3-24.4c2.4-6.3,6-11.9,9.1-17.8c-0.5,1.3-0.9,2.7-1.3,4
						c-2.4,8.6-3.2,18.1-0.5,26.8c2.6,8.3,8.1,14,15.7,18c2.9,1.5,6,2.8,9.1,4.2c4.3,3.5,10.7,9.4,8.8,15.6c-0.3,1-0.4,1.9-0.4,2.8
						c-2.8,2.2-6.1,4-7.9,5c-9.2,4.7-19.4,7.9-29.2,11.1c-9.5,3.1-19.3,5.4-28.9,8.2c-0.1,0-0.1,0-0.2,0.1
						C1147.1,509.4,1147.8,508.9,1148.5,508.4z M1099.5,553.5c-2.1-7.9,1.6-15,8-19.5c4.4-3.1,9.5-5.1,14.6-7
						c-4.3,6.9-6.4,15.1-6.9,23.2c-0.4,5.5-0.1,11.1,0.5,16.6c0,0.4,0.1,0.7,0.1,1.1C1108.5,565.8,1101.6,561.3,1099.5,553.5z
						 M1288.5,480.5c1.1,7-3.8,13.3-9.3,18c0.7-1.1,1.3-2.2,1.8-3.3c1.9-4.1,3.3-8.5,3.7-13c0.4-4.3-0.8-8.2-1.3-12.4
						c-0.1-1.3-0.4-2.6-0.7-3.8c0.1,0.1,0.1,0.3,0.2,0.4C1284.8,470.8,1287.7,475.5,1288.5,480.5z"/>
				</g>
				<g>
					<path class="st2" d="M1182.2,578.5c0.1,0,0.3-0.5,0.2-0.5C1182.3,578,1182.1,578.5,1182.2,578.5z"/>
				</g>
				<g>
					<path class="st2" d="M1169.9,412.8c-1,3.7-2.9,7.1-3.9,10.8c-0.1,0.3,0.1,0.4,0.3,0.2c10.2-10.3,2.3-26.2,2.3-38.3
						c0-1.2-2.9-5.2-2.9-3.8c0.1,6,0.9,12,2.8,17.7C1170,404,1171.2,408,1169.9,412.8z"/>
				</g>
			</g>
		</g>
	</g>
	<g>
		<g>
			<g>
				<path class="st0" d="M1197.8,785.5v6.8h-5.2v-22.5h5.2v7.8l7.8-8.3l4,3.4l-6.6,7.2l7.9,12.5h-6.6l-5-8.4L1197.8,785.5z"/>
			</g>
			<g>
				<path class="st0" d="M1218.7,769.7v22.5h-5.2v-22.5H1218.7z"/>
			</g>
			<g>
				<path class="st0" d="M1221.9,790.8l1.7-4.5c0.5,0.4,1.2,0.7,2.1,1c0.9,0.3,1.7,0.4,2.4,0.4c0.8,0,1.4-0.2,1.8-0.5
					c0.5-0.4,0.7-0.8,0.7-1.2c0-0.3-0.2-0.6-0.5-0.8c-0.3-0.3-0.9-0.7-1.6-1.2l-0.9-0.6c-1.3-0.9-2.3-1.6-3-2.2
					c-0.7-0.6-1.4-1.3-1.9-2.3c-0.6-0.9-0.9-2-0.9-3.1c0-1.2,0.3-2.3,0.9-3.3c0.6-1,1.4-1.8,2.5-2.3c1.1-0.6,2.4-0.8,3.8-0.8
					c1,0,2,0.2,3,0.5c1,0.3,1.9,0.8,2.7,1.4l-1.5,4.1c-1-0.4-1.8-0.7-2.3-0.8s-1.1-0.2-1.8-0.2c-0.6,0-1,0.2-1.4,0.5
					c-0.4,0.3-0.5,0.7-0.5,1.1c0,0.3,0.1,0.6,0.4,0.9c0.3,0.3,0.8,0.6,1.5,1l1,0.7c1.2,0.8,2.2,1.5,3,2.2c0.8,0.7,1.5,1.5,2,2.4
					c0.6,0.9,0.8,1.9,0.8,3.1c0,1.3-0.3,2.4-0.9,3.4c-0.6,1-1.5,1.8-2.7,2.4c-1.2,0.6-2.5,0.9-4.1,0.9c-1,0-2.1-0.2-3.4-0.5
					C1223.7,791.8,1222.7,791.3,1221.9,790.8z"/>
			</g>
			<g>
				<path class="st0" d="M1237.6,790.8l1.7-4.5c0.5,0.4,1.2,0.7,2.1,1c0.9,0.3,1.7,0.4,2.4,0.4c0.8,0,1.4-0.2,1.8-0.5
					c0.5-0.4,0.7-0.8,0.7-1.2c0-0.3-0.2-0.6-0.5-0.8c-0.3-0.3-0.9-0.7-1.6-1.2l-0.9-0.6c-1.3-0.9-2.3-1.6-3-2.2
					c-0.7-0.6-1.4-1.3-1.9-2.3c-0.6-0.9-0.9-2-0.9-3.1c0-1.2,0.3-2.3,0.9-3.3c0.6-1,1.4-1.8,2.5-2.3c1.1-0.6,2.4-0.8,3.8-0.8
					c1,0,2,0.2,3,0.5c1,0.3,1.9,0.8,2.7,1.4l-1.5,4.1c-1-0.4-1.8-0.7-2.3-0.8s-1.1-0.2-1.8-0.2c-0.6,0-1,0.2-1.4,0.5
					c-0.4,0.3-0.5,0.7-0.5,1.1c0,0.3,0.1,0.6,0.4,0.9c0.3,0.3,0.8,0.6,1.5,1l1,0.7c1.2,0.8,2.2,1.5,3,2.2c0.8,0.7,1.5,1.5,2,2.4
					c0.6,0.9,0.8,1.9,0.8,3.1c0,1.3-0.3,2.4-0.9,3.4c-0.6,1-1.5,1.8-2.7,2.4c-1.2,0.6-2.5,0.9-4.1,0.9c-1,0-2.1-0.2-3.4-0.5
					C1239.3,791.8,1238.3,791.3,1237.6,790.8z"/>
			</g>
			<g>
				<path class="st0" d="M1252.6,792.2l7.3-22.5h5.2l7.3,22.3l-5.1,0.6l-1.4-4.8h-6.7l-1.3,4.4H1252.6z M1260.5,783.1h3.8l-1.9-6.1
					L1260.5,783.1z"/>
			</g>
			<g>
				<path class="st0" d="M1272.9,769.7h16.6l0.5,4.7h-6.2v17.8h-5.2v-17.8h-5.7V769.7z"/>
			</g>
			<g>
				<path class="st0" d="M1306.3,787.5l0.5,4.7h-14.2v-22.5h12.9l0.5,4.7h-8.2v4.1h6l0.5,4.7h-6.5v4.2H1306.3z"/>
			</g>
			<g>
				<path class="st0" d="M1314.9,780.4v11.9h-5.2v-22.5h4.8l7.5,12.2v-12.2h5.2v22.5h-4.9L1314.9,780.4z"/>
			</g>
		</g>
		<g>
			<polygon class="st0" points="1182.3,779 1185.7,779.8 1183.3,782.4 1183.6,785.9 1180.4,784.4 1177.2,785.8 1177.6,782.3 
				1175.3,779.6 1178.8,779 1180.6,776 			"/>
		</g>
		<g>
			<g>
				<path class="st0" d="M988.4,781.3l-2.6,4.1l-2.1,0.3l-3.1-4.4v10.9h-5.2v-22.5h3.6l5.9,8.6l5.4-8.6h3.5v22.5h-5.2V781.3z"/>
			</g>
			<g>
				<path class="st0" d="M1006.7,769.2c2.1,0,3.8,0.5,5.4,1.5c1.5,1,2.7,2.4,3.5,4.2c0.8,1.8,1.2,3.7,1.2,5.9c0,2.3-0.4,4.3-1.3,6.1
					c-0.8,1.8-2,3.2-3.6,4.2c-1.5,1-3.3,1.5-5.2,1.5c-2,0-3.8-0.5-5.3-1.5c-1.5-1-2.7-2.4-3.5-4.2c-0.8-1.8-1.2-3.7-1.2-5.9
					c0-2.3,0.4-4.3,1.3-6.1c0.9-1.8,2-3.2,3.6-4.2C1003.1,769.7,1004.8,769.2,1006.7,769.2z M1002.1,781c0,1.9,0.4,3.5,1.2,4.8
					c0.8,1.2,2,1.9,3.4,1.9c1.4,0,2.5-0.6,3.4-1.8c0.9-1.2,1.3-2.9,1.3-5.1c0-1.9-0.4-3.5-1.3-4.7c-0.8-1.2-2-1.8-3.4-1.8
					c-0.9,0-1.7,0.3-2.4,0.8c-0.7,0.6-1.3,1.4-1.7,2.4S1002.1,779.7,1002.1,781z"/>
			</g>
			<g>
				<path class="st0" d="M1033,781.3l-2.6,4.1l-2.1,0.3l-3.1-4.4v10.9h-5.2v-22.5h3.6l5.9,8.6l5.4-8.6h3.5v22.5h-5.2V781.3z"/>
			</g>
			<g>
				<path class="st0" d="M1051.4,769.2c2.1,0,3.8,0.5,5.4,1.5c1.5,1,2.7,2.4,3.5,4.2c0.8,1.8,1.2,3.7,1.2,5.9c0,2.3-0.4,4.3-1.3,6.1
					c-0.8,1.8-2,3.2-3.6,4.2c-1.5,1-3.3,1.5-5.2,1.5c-2,0-3.8-0.5-5.3-1.5c-1.5-1-2.7-2.4-3.5-4.2c-0.8-1.8-1.2-3.7-1.2-5.9
					c0-2.3,0.4-4.3,1.3-6.1c0.9-1.8,2-3.2,3.6-4.2C1047.8,769.7,1049.5,769.2,1051.4,769.2z M1046.7,781c0,1.9,0.4,3.5,1.2,4.8
					c0.8,1.2,2,1.9,3.4,1.9c1.4,0,2.5-0.6,3.4-1.8c0.9-1.2,1.3-2.9,1.3-5.1c0-1.9-0.4-3.5-1.3-4.7c-0.8-1.2-2-1.8-3.4-1.8
					c-0.9,0-1.7,0.3-2.4,0.8c-0.7,0.6-1.3,1.4-1.7,2.4S1046.7,779.7,1046.7,781z"/>
			</g>
			<g>
				<path class="st0" d="M1073.3,792.2h-8.7v-22.5h8.8c1.9,0,3.6,0.5,5,1.4c1.4,1,2.4,2.3,3.1,3.9c0.7,1.7,1.1,3.6,1.1,5.8
					c0,2.3-0.4,4.3-1.2,6c-0.8,1.7-1.9,3-3.3,4C1076.7,791.7,1075.1,792.2,1073.3,792.2z M1073.2,774.4h-3.3v13.1h3.1
					c1.3,0,2.3-0.6,3.1-1.7c0.8-1.1,1.2-2.8,1.2-4.9c0-1.9-0.4-3.4-1.1-4.6C1075.4,775,1074.4,774.4,1073.2,774.4z"/>
			</g>
			<g>
				<path class="st0" d="M1083.7,792.2l7.3-22.5h5.2l7.3,22.3l-5.1,0.6l-1.4-4.8h-6.7l-1.3,4.4H1083.7z M1091.7,783h3.8l-1.9-6.1
					L1091.7,783z"/>
			</g>
		</g>
		<g>
			<g>
				<path class="st0" d="M1132.9,780.3v11.9h-5.2v-22.5h4.8l7.5,12.2v-12.2h5.2v22.5h-4.9L1132.9,780.3z"/>
			</g>
			<g>
				<path class="st0" d="M1158.4,769.2c2.1,0,3.8,0.5,5.4,1.5c1.5,1,2.7,2.4,3.5,4.2c0.8,1.8,1.2,3.7,1.2,5.9c0,2.3-0.4,4.3-1.3,6.1
					c-0.8,1.8-2,3.2-3.6,4.2c-1.5,1-3.3,1.5-5.2,1.5c-2,0-3.8-0.5-5.3-1.5c-1.5-1-2.7-2.4-3.5-4.2c-0.8-1.8-1.2-3.7-1.2-5.9
					c0-2.3,0.4-4.3,1.3-6.1c0.9-1.8,2-3.2,3.6-4.2C1154.7,769.7,1156.5,769.2,1158.4,769.2z M1153.7,781c0,1.9,0.4,3.5,1.2,4.8
					c0.8,1.2,2,1.9,3.4,1.9c1.4,0,2.5-0.6,3.4-1.8c0.9-1.2,1.3-2.9,1.3-5.1c0-1.9-0.4-3.5-1.3-4.7c-0.8-1.2-2-1.8-3.4-1.8
					c-0.9,0-1.7,0.3-2.4,0.8c-0.7,0.6-1.3,1.4-1.7,2.4S1153.7,779.7,1153.7,781z"/>
			</g>
		</g>
		<g>
			<polygon class="st0" points="1117.4,779 1120.8,779.8 1118.4,782.4 1118.7,785.9 1115.5,784.4 1112.3,785.8 1112.7,782.3 
				1110.4,779.6 1113.8,779 1115.7,776 			"/>
		</g>
	</g>
	<g>
		<g>
			<path class="st0" d="M1246.7,801.8c0.4,0,0.7,0,1,0v0.3c-0.5,0.2-0.9,0.7-1.1,1.5l-2.3,7.4c-0.1,0-0.2,0-0.5,0
				c-0.2,0-0.4,0-0.5,0l-1.9-5.8l-1.9,5.8c-0.1,0-0.2,0-0.5,0c-0.2,0-0.4,0-0.5,0l-2.9-8.1c-0.1-0.3-0.2-0.5-0.4-0.6
				s-0.3-0.2-0.4-0.2v-0.3c0.5,0,1.2,0,1.9,0c0.7,0,1.3,0,1.6,0v0.3c-0.3,0-0.5,0.2-0.5,0.5c0,0.2,0,0.4,0.1,0.6l1.9,5.5l1.3-3.9
				l-0.7-2c-0.1-0.3-0.2-0.4-0.3-0.5c-0.1-0.1-0.3-0.2-0.4-0.2v-0.3c0.5,0,1.1,0,1.9,0c0.8,0,1.5,0,1.9,0v0.3c-0.3,0-0.5,0-0.7,0.1
				c-0.1,0.1-0.2,0.2-0.2,0.4c0,0.1,0,0.3,0.1,0.6l1.8,5.4l1.2-3.9c0.2-0.6,0.3-1.1,0.3-1.5s-0.1-0.6-0.3-0.8
				c-0.2-0.2-0.5-0.3-0.8-0.3v-0.3C1245.7,801.8,1246.2,801.8,1246.7,801.8z"/>
			<path class="st0" d="M1250.4,810.4c0.1,0.1,0.1,0.2,0.3,0.3c0.1,0.1,0.3,0.1,0.5,0.1v0.3c-0.9,0-1.4-0.1-1.7-0.1
				c-0.3,0-0.9,0-1.8,0.1v-0.3c0.2,0,0.4,0,0.5-0.1c0.1-0.1,0.2-0.2,0.3-0.3c0.1-0.1,0.1-0.3,0.1-0.6v-4.1c0-0.4-0.1-0.7-0.2-0.9
				c-0.1-0.2-0.3-0.3-0.6-0.3v-0.3c0.3,0,0.5,0,0.8,0c0.8,0,1.4-0.1,1.9-0.2v5.7C1250.3,810,1250.3,810.2,1250.4,810.4z
				 M1250.1,801.2c0.2,0.2,0.3,0.4,0.3,0.7c0,0.3-0.1,0.6-0.3,0.7c-0.2,0.2-0.5,0.3-0.9,0.3c-0.4,0-0.7-0.1-0.9-0.3
				c-0.2-0.2-0.3-0.4-0.3-0.7c0-0.3,0.1-0.6,0.3-0.7c0.2-0.2,0.5-0.3,0.9-0.3C1249.6,800.9,1249.9,801,1250.1,801.2z"/>
			<path class="st0" d="M1255.8,804.3v0.3h-1.5v5.2c0,0.3,0,0.4,0.1,0.5c0.1,0.1,0.2,0.2,0.4,0.2c0.4,0,0.7-0.3,0.9-0.8l0.2,0.1
				c-0.3,0.9-0.9,1.3-1.8,1.3c-0.6,0-1-0.1-1.3-0.4c-0.2-0.2-0.3-0.4-0.4-0.7c-0.1-0.3-0.1-0.7-0.1-1.1v-4.4h-1.1v-0.3h1.1v-1.7
				c0.7,0,1.3-0.1,1.9-0.4v2.1H1255.8z"/>
			<path class="st0" d="M1261,804.1c0.7,0,1.1,0.2,1.4,0.5c0.1,0.2,0.2,0.4,0.3,0.6c0.1,0.3,0.1,0.6,0.1,1v3.5c0,0.2,0,0.4,0.1,0.6
				c0.1,0.1,0.1,0.2,0.3,0.3c0.1,0.1,0.3,0.1,0.5,0.1v0.3c-0.9,0-1.5-0.1-1.7-0.1c-0.3,0-0.9,0-1.7,0.1v-0.3c0.2,0,0.3,0,0.4-0.1
				s0.2-0.2,0.2-0.3c0-0.1,0.1-0.3,0.1-0.6v-4c0-0.4-0.1-0.6-0.2-0.8s-0.3-0.3-0.6-0.3c-0.2,0-0.5,0.1-0.7,0.2
				c-0.2,0.1-0.4,0.3-0.5,0.5s-0.2,0.5-0.2,0.8v3.6c0,0.2,0,0.4,0.1,0.6c0,0.1,0.1,0.2,0.2,0.3s0.2,0.1,0.4,0.1v0.3
				c-0.8,0-1.4-0.1-1.6-0.1c-0.3,0-0.9,0-1.8,0.1v-0.3c0.2,0,0.4,0,0.5-0.1c0.1-0.1,0.2-0.2,0.3-0.3c0.1-0.1,0.1-0.3,0.1-0.6v-7.4
				c0-0.4-0.1-0.7-0.2-0.9c-0.1-0.2-0.3-0.3-0.6-0.3V801c0.3,0,0.5,0,0.8,0c0.8,0,1.4-0.1,1.9-0.2v4.5
				C1259.3,804.5,1260,804.1,1261,804.1z"/>
		</g>
		<g>
			<g>
				<path class="st0" d="M1222.9,816.1l2.9,29.4l22.1-2.2l-2.9-29.4L1222.9,816.1z M1229.9,839.4l-1.8-18.2l10.8-1.1l0.8,2.7
					l-7.9,0.8l0.5,4.9l5.9-0.6l0.8,2.7l-6.5,0.6l0.5,5.1l8.7-0.9l0.8,2.6L1229.9,839.4z"/>
			</g>
			<g>
				<path class="st0" d="M1249.8,822l-3.8,29.3l22,2.8l3.8-29.3L1249.8,822z M1265.6,848.4l-3.6-0.5l-3.5-7.4l-5.4,6.2l-3.5-0.5
					l7.5-8.3l-5-9.1l3.2-0.8l4.1,7.9l5.3-6.1l3.6,0.5l-7.5,8.3L1265.6,848.4z"/>
			</g>
			<g>
				<path class="st0" d="M1266.7,810.3l6.4,28.9l21.6-4.8l-6.4-28.9L1266.7,810.3z M1276.8,832.5l-3.9-17.8l3.4-0.7l3.4,15.2
					l7.9-1.7l1.1,2.5L1276.8,832.5z"/>
			</g>
			<g>
				<path class="st0" d="M1296.1,810.4l-4.7,29.2l21.9,3.5l4.7-29.2L1296.1,810.4z M1304.9,836l-3.4-0.6l2.9-18l3.4,0.6L1304.9,836z
					"/>
			</g>
			<g>
				<g>
					<path class="st0" d="M1328.2,837.7c0.5-0.5,0.8-1.1,0.7-1.8c-0.1-0.8-0.4-1.4-1-1.6c-0.5-0.3-1.2-0.3-2.2-0.2l-3.1,0.5l0.7,4.5
						l2.5-0.4C1326.9,838.5,1327.6,838.2,1328.2,837.7z"/>
				</g>
				<g>
					<path class="st0" d="M1327.7,841.2l-4,0.6l0.7,5.1l3.7-0.5c0.9-0.1,1.7-0.5,2.1-1c0.5-0.5,0.7-1.1,0.6-1.9
						c-0.1-0.8-0.5-1.4-1-1.8C1329.2,841.2,1328.5,841.1,1327.7,841.2z"/>
				</g>
				<g>
					<path class="st0" d="M1313.9,827.1l4.3,29.3l21.9-3.2l-4.3-29.3L1313.9,827.1z M1333.3,847c-1,1.1-2.5,1.8-4.4,2.1l-7.4,1.1
						l-2.6-18.1l7-1c1.9-0.3,3.4-0.1,4.5,0.6c1.2,0.7,1.9,1.9,2.1,3.6c0.2,1.1-0.3,2.3-1.5,3.5c2,0.7,3.2,2.1,3.4,4.1
						C1334.7,844.5,1334.3,845.9,1333.3,847z"/>
				</g>
			</g>
		</g>
	</g>
	<g>
	</g>
	<g>
		<g>
			<g>
				<path class="st0" d="M993.6,872.3h-27.1c-0.5,2.2-1.1,4.7-1.8,7h21.9v46.6h-10.9v-4.1h-27.6v4.1h-10.4v-46.6h16.1
					c0.4-2.2,0.8-4.6,1.1-7h-25.2v-9.5h63.8V872.3z M975.6,895.9v-7.2h-27.6v7.2H975.6z M948.1,912.4h27.6v-7.4h-27.6V912.4z"/>
			</g>
			<g>
				<path class="st0" d="M1001.9,863.9h59.9v61.3h-10.7v-4.4h-39.1v4.4h-10.2V863.9z M1026.1,873.8h-14V887h14V873.8z M1012.1,897.2
					v13.3h14v-13.3H1012.1z M1051.2,887v-13.2h-14.7V887H1051.2z M1036.5,910.5h14.7v-13.3h-14.7V910.5z"/>
			</g>
			<g>
				<path class="st0" d="M1122.9,877.9c-0.3,0.6-1.2,1.2-2.2,1.2c-3.1,25-10,36.5-22.2,36.5c-8.5,0-14.2-6.7-14.2-19.1
					c0-18.4,14.9-31.1,32.5-31.1c19.7,0,30.6,11.2,30.6,27.1c0,16.4-8,25.2-26,30c-1.6-2.6-3.9-6.1-6.9-9
					c15.9-3.2,21.5-10.7,21.5-20.8c0-11.2-8.1-17.5-19.4-17.5c-1.5,0-2.8,0.1-4.2,0.4L1122.9,877.9z M1109.7,876.2
					c-9,2.9-14.8,10.8-14.8,19.8c0,5.1,1.1,9,4,9C1104.9,905,1108.8,891.3,1109.7,876.2z"/>
			</g>
			<g>
				<path class="st0" d="M1186.7,866.2v40.5h-10.5v5.6h-7.5v-46.2H1186.7z M1179.1,897.8v-22.5h-2.9v22.5H1179.1z M1232,908.4h-15.2
					c3.3,4.8,8.8,7.6,17.4,8.7c-2.1,2-4.8,6.2-6,8.9c-9.1-1.9-14.7-5.8-18.5-12.1c-3.4,5.3-9.5,9.4-21.2,12.1
					c-0.8-2.5-3.3-6.3-5.3-8.3c10.5-2,15.6-5,18.2-9.3h-13.9v-8.7h16.3c0.2-1.8,0.3-3.6,0.4-5.6l3.9,0.4c-0.6-1-1.3-2-2-2.8
					c-5.7,1.1-11.3,2.2-15.2,2.8c-0.1,0.7-0.6,1.1-1.2,1.2l-3.1-9c2.2-0.2,4.9-0.6,7.8-0.9v-3.9h-5.5V875h5.5v-3h-6v-7.2h6v-5.3
					l10.2,0.6c-0.1,0.7-0.6,1.1-1.8,1.3v3.4h5.2v7.2h-5.2v3h5v6.9h-5v2.9l4.8-0.6l0.1,2.5c3-3.5,3.7-8.3,3.9-14.9h-2.9v-7.9h16.4
					l1.9-0.1l4.6,0.3c0,0.7,0,1.6-0.1,2.5c-0.4,16.5-0.9,22.9-2.5,25.1c-1.5,2.2-3.4,3.2-10.2,3c-0.1-2.2-0.8-5.2-1.8-7.2
					c-1.3,2.8-3.1,5.3-5.8,7.2l4.8,0.4c-0.1,0.7-0.8,1.3-2,1.4c-0.1,1.1-0.2,2.2-0.4,3.2h18.2V908.4z M1220.1,871.8
					c-0.3,5.9-0.8,11.1-2.7,15.4c1.3,0.1,2.2,0.1,2.9,0.1c0.7,0,1.2-0.2,1.7-0.9c0.6-1.1,1-4.8,1.3-14.7H1220.1z"/>
			</g>
			<g>
				<path class="st0" d="M1292.3,906.4h-17.5v19.7h-10.4v-19.7H1248v-6.7c-2.3,1-4.7,1.8-7.1,2.5c-1.1-2.4-3.3-6.5-5.1-8.6
					c12.1-3,23.3-10,28.8-17.2l13,0.5v-2.5h-15.2v4.5h-10.1v-4.5h-13.5v-9.3h13.5v-5.8l12.2,0.6c-0.1,0.8-0.7,1.3-2.1,1.5v3.6h15.2
					v-5.8l12.3,0.6c-0.1,0.8-0.6,1.3-2.1,1.5v3.6h13.8v9.3h-13.8v4.5h-10.2v-1.8c-0.3,0.6-0.9,1.1-1.9,1.2
					c6.3,7.5,17.9,12.1,28.7,14.2c-2.3,2.7-4.4,6.5-5.9,9.4c-2-0.6-4.1-1.3-6.2-2.1V906.4z M1262.4,911.1c-0.3,0.6-1.1,1-2,0.8
					c-3,4.7-8.1,9.9-13.3,13.2c-2-1.9-6-4.8-8.4-6.2c4.9-2.7,9.5-7.3,11.9-11.6L1262.4,911.1z M1286,897.1
					c-6.6-3.2-12.8-7.4-16.3-11.9c-3.4,4.3-9.2,8.5-15.9,11.9h10.6v-5.7l12.5,0.6c-0.1,0.8-0.6,1.3-2.1,1.5v3.5H1286z M1291.9,924.9
					c-2.6-3.4-8.6-8.8-13.2-12.6l8.3-5.3c4.5,3.4,10.7,8.3,13.8,11.9L1291.9,924.9z"/>
			</g>
			<g>
				<path class="st0" d="M1347.8,867.1h24.9v9.7h-50v7.8c0,11.7-1.2,30-7.7,41.2c-1.9-1.7-6.5-4.7-8.8-5.8
					c5.9-10.1,6.3-25.2,6.3-35.5v-17.5h24.7v-7.7l12.8,0.7c-0.1,0.8-0.6,1.3-2.1,1.5V867.1z M1352.9,878.1c-0.1,0.8-0.7,1.3-2.2,1.5
					v3.4h21v9h-21v6.2h17.3v27.6h-10.5v-2.4h-22v2.4h-10v-27.6h14.7v-20.8L1352.9,878.1z M1357.6,914.6v-7.4h-22v7.4H1357.6z"/>
			</g>
		</g>
		<g>
			<g>
				<path class="st0" d="M942.7,838.1l-4.4,15.5h-4.1l-4.3-15.4h3.9l1.5,6.4c0.4,1.7,0.8,3.5,1.1,5.4h0.1c0.3-1.8,0.7-3.6,1.1-5.4
					l1.5-6.5H942.7z"/>
			</g>
			<g>
				<path class="st0" d="M951.9,846.4c1.1,0.4,1.6,1.4,2,2.9c0.4,1.7,0.8,3.7,1.1,4.3h-3.6c-0.2-0.4-0.6-1.8-0.9-3.6
					c-0.3-1.9-0.9-2.4-2.1-2.4h-0.7v6h-3.5v-15.2c1.1-0.2,2.6-0.3,4.2-0.3c2.1,0,6.1,0.2,6.1,4.5
					C954.5,844.3,953.3,845.7,951.9,846.4L951.9,846.4z M948.6,845c1.5,0,2.3-0.9,2.3-2.2c0-1.8-1.3-2.1-2.1-2.1
					c-0.6,0-0.9,0-1.1,0.1v4.2H948.6z"/>
			</g>
			<g>
				<path class="st0" d="M961,838.3c1-0.2,2.4-0.3,4.2-0.3c2,0,3.5,0.3,4.6,1.2c1,0.8,1.6,2.1,1.6,3.6c0,4.3-3.5,5.3-5.9,5.3
					c-0.3,0-0.6,0-0.9,0v5.5H961V838.3z M964.5,845.3c0.2,0,0.4,0,0.8,0c1.6,0,2.5-1,2.5-2.4c0-1.4-0.9-2.2-2.3-2.2
					c-0.5,0-0.9,0.1-1.1,0.1V845.3z"/>
			</g>
			<g>
				<path class="st0" d="M973.5,838.1h3.5v15.5h-3.5V838.1z"/>
			</g>
			<g>
				<path class="st0" d="M988.6,853.6h-8.8v-15.5h8.5v2.9h-5v3.1h4.7v2.9h-4.7v3.6h5.3V853.6z"/>
			</g>
			<g>
				<path class="st0" d="M1000.6,853.3c-0.5,0.2-1.7,0.5-3.3,0.5c-4.9,0-7.2-3.4-7.2-7.7c0-5.5,3.6-8.2,7.6-8.2
					c1.6,0,2.6,0.3,3.1,0.6l-0.6,2.9c-0.5-0.2-1.3-0.5-2.2-0.5c-2.2,0-4.1,1.5-4.1,5c0,3.2,1.6,4.9,4.1,4.9c0.8,0,1.7-0.2,2.2-0.4
					L1000.6,853.3z"/>
			</g>
			<g>
				<path class="st0" d="M1011.4,853.6h-8.8v-15.5h8.5v2.9h-5v3.1h4.7v2.9h-4.7v3.6h5.3V853.6z"/>
			</g>
		</g>
	</g>
	<g>
		<path class="st0" d="M1344.2,748.1H958.3V391.6h385.9V748.1z M959.3,747.1h383.9V392.6H959.3V747.1z"/>
	</g>
	<g>
		<g>
			<g>
				<path class="st0" d="M1119.6,978.4c2.1,1.1,3.7,2.7,4.8,4.9c1.1,2.1,1.7,4.6,1.7,7.6c0,2.9-0.6,5.4-1.8,7.6
					c-1.2,2.2-2.8,3.9-4.9,5.1c-2.1,1.2-4.5,1.8-7.1,1.8c-2.8,0-5.2-0.6-7.2-1.7s-3.7-2.7-4.8-4.9c-1.1-2.1-1.7-4.6-1.7-7.6
					c0-2.9,0.6-5.4,1.7-7.6c1.2-2.2,2.8-3.9,4.9-5.1c2.1-1.2,4.5-1.8,7.1-1.8C1115.1,976.8,1117.5,977.3,1119.6,978.4z
					 M1108.5,979.2c-1.1,1.2-1.9,2.8-2.5,4.8c-0.6,2.1-0.9,4.4-0.9,7.1c0,2.7,0.3,5.1,1,7.1c0.7,2.1,1.6,3.6,2.7,4.8
					c1.1,1.1,2.4,1.7,3.8,1.7c1.4,0,2.7-0.6,3.8-1.7c1.1-1.2,1.9-2.8,2.5-4.8c0.6-2.1,0.9-4.4,0.9-7.1c0-2.7-0.3-5.1-1-7.1
					c-0.7-2.1-1.6-3.6-2.7-4.8c-1.1-1.1-2.4-1.7-3.8-1.7C1110.8,977.5,1109.5,978,1108.5,979.2z"/>
			</g>
			<g>
				<path class="st0" d="M1137.9,1000.5c0,1,0.1,1.8,0.3,2.3c0.2,0.5,0.6,0.8,1.2,1c0.6,0.2,1.5,0.3,2.7,0.3v0.9
					c-3.2-0.1-5.6-0.1-7.1-0.1c-0.7,0-2.8,0-6.1,0.1v-0.8c0.9,0,1.5-0.1,1.9-0.3c0.4-0.2,0.7-0.5,0.8-0.9c0.1-0.4,0.2-1.2,0.2-2.1
					v-19.3c0-1-0.1-1.7-0.2-2.1c-0.1-0.4-0.4-0.7-0.8-0.9c-0.4-0.2-1-0.3-1.9-0.3v-0.8c1.3,0.1,3.3,0.1,5.9,0.1c1,0,2.2,0,3.5,0
					s2.1,0,2.6,0c2.4,0,4.3,0.3,6,1c1.6,0.6,2.8,1.5,3.6,2.7c0.8,1.2,1.2,2.5,1.2,4c0,1.4-0.4,2.8-1.1,4.1c-0.7,1.3-2,2.4-3.7,3.3
					c-1.7,0.9-4,1.3-6.9,1.3h-2.1V1000.5z M1144,990.9c0.8-1.3,1.2-3.2,1.2-5.5c0-2.5-0.4-4.4-1.1-5.6c-0.7-1.2-2-1.8-3.7-1.8
					c-0.7,0-1.2,0.1-1.5,0.3c-0.3,0.2-0.6,0.5-0.7,1c-0.1,0.5-0.2,1.2-0.2,2.1V993h1.7C1141.7,993,1143.2,992.3,1144,990.9z"/>
			</g>
			<g>
				<path class="st0" d="M1174.9,999c0,2.4,0.1,4.4,0.3,5.9c-1.8-0.1-4.7-0.1-8.9-0.1c-5.7,0-9.9,0-12.7,0.1v-0.8
					c0.9,0,1.5-0.1,1.9-0.3c0.4-0.2,0.7-0.5,0.8-0.9c0.1-0.4,0.2-1.2,0.2-2.1v-19.3c0-1-0.1-1.7-0.2-2.1c-0.1-0.4-0.4-0.7-0.8-0.9
					c-0.4-0.2-1-0.3-1.9-0.3v-0.8c2.8,0.1,7,0.1,12.7,0.1c3.8,0,6.5,0,8.1-0.1c-0.2,2.1-0.3,4.1-0.3,5.8c0,1.2,0,2,0.1,2.6h-0.9
					c-0.3-1.9-0.7-3.4-1.2-4.5c-0.5-1.1-1.2-1.9-2.1-2.3s-1.9-0.7-3.1-0.7h-1.6c-0.8,0-1.4,0.1-1.8,0.2c-0.4,0.1-0.6,0.4-0.7,0.8
					c-0.1,0.4-0.2,1-0.2,1.8v9.6h1.2c1.4,0,2.4-0.5,3.2-1.5c0.7-1,1.2-2.2,1.5-3.6h0.9c-0.1,1.3-0.1,2.5-0.1,3.7l0,1.9
					c0,1.3,0.1,3.2,0.2,5.5h-0.9c-0.5-3.4-2.1-5.2-4.8-5.2h-1.2v9.8c0,0.8,0.1,1.4,0.2,1.8c0.1,0.4,0.4,0.6,0.7,0.8
					c0.4,0.1,0.9,0.2,1.8,0.2h1.9c1.8,0,3.3-0.6,4.4-1.9c1.1-1.3,1.9-3.4,2.4-6.4h0.9C1174.9,996.5,1174.9,997.6,1174.9,999z"/>
			</g>
			<g>
				<path class="st0" d="M1202,978.7c-0.4,0.3-0.7,0.8-0.8,1.5c-0.1,0.7-0.2,1.7-0.2,3v21.7c-0.2,0-0.5,0-1,0c-0.5,0-0.8,0-1,0
					l-16.9-21.4v14.9c0,1.5,0.1,2.7,0.2,3.4s0.5,1.2,1,1.6s1.4,0.6,2.5,0.7v0.8c-1-0.1-2.4-0.1-4.2-0.1c-1.4,0-2.6,0-3.4,0.1v-0.8
					c0.8-0.1,1.5-0.3,1.9-0.7c0.4-0.3,0.7-0.8,0.8-1.5c0.1-0.7,0.2-1.7,0.2-3v-17.5c0-1-0.1-1.7-0.2-2.1c-0.1-0.4-0.4-0.7-0.8-0.9
					c-0.4-0.2-1-0.3-1.9-0.3v-0.8c0.8,0.1,2,0.1,3.4,0.1c1.3,0,2.4,0,3.3-0.1l15.1,18.6v-12.2c0-1.5-0.1-2.7-0.2-3.4
					c-0.2-0.7-0.5-1.2-1-1.6c-0.5-0.3-1.4-0.6-2.5-0.7v-0.8c1,0.1,2.4,0.1,4.2,0.1c1.4,0,2.6,0,3.4-0.1v0.8
					C1203,978.2,1202.4,978.4,1202,978.7z"/>
			</g>
		</g>
		<g>
			<rect x="1099.7" y="966.3" class="st0" width="103.2" height="1.5"/>
		</g>
		<g>
			<rect x="1099.7" y="1014.4" class="st0" width="103.2" height="1.5"/>
		</g>
	</g>
	<g>
		<g>
			<g>
				<path class="st0" d="M951,976.4h3.8l0.3,2.6H951v4.6h-3.3v-12.2h7.9l0.3,2.6h-5V976.4z"/>
			</g>
			<g>
				<path class="st0" d="M961.1,971.4v12.2h-3.3v-12.2H961.1z"/>
			</g>
			<g>
				<path class="st0" d="M963.9,983.6v-12.2h5.1c1.5,0,2.7,0.3,3.6,1c0.9,0.7,1.4,1.7,1.4,3.1c0,0.7-0.1,1.4-0.4,1.9
					c-0.3,0.5-0.7,1-1.2,1.3l2.7,4.8h-3.8l-2-3.8h-2.2v3.8H963.9z M969,974h-1.8v3.2h1.8c0.5,0,0.9-0.2,1.2-0.5
					c0.3-0.3,0.5-0.7,0.5-1.2c0-0.5-0.2-0.9-0.5-1.2C970,974.1,969.5,974,969,974z"/>
			</g>
			<g>
				<path class="st0" d="M985.4,981l0.3,2.6h-9v-12.2h8.1l0.3,2.6H980v2.2h3.8l0.3,2.6H980v2.3H985.4z"/>
			</g>
			<g>
				<path class="st0" d="M1000.1,981l0.3,2.6h-9v-12.2h8.1l0.3,2.6h-5.1v2.2h3.8l0.3,2.6h-4.1v2.3H1000.1z"/>
			</g>
			<g>
				<path class="st0" d="M1001.4,982.9l1.1-2.5c0.3,0.2,0.8,0.4,1.3,0.5c0.6,0.2,1.1,0.2,1.5,0.2c0.5,0,0.9-0.1,1.2-0.3
					c0.3-0.2,0.4-0.4,0.4-0.7c0-0.2-0.1-0.3-0.3-0.5c-0.2-0.2-0.5-0.4-1-0.6l-0.6-0.3c-0.8-0.5-1.5-0.9-1.9-1.2
					c-0.5-0.3-0.9-0.7-1.2-1.2c-0.4-0.5-0.5-1.1-0.5-1.7c0-0.7,0.2-1.3,0.6-1.8c0.4-0.5,0.9-0.9,1.6-1.3c0.7-0.3,1.5-0.4,2.4-0.4
					c0.6,0,1.3,0.1,1.9,0.3c0.7,0.2,1.2,0.4,1.7,0.7l-1,2.2c-0.6-0.2-1.1-0.4-1.5-0.4c-0.3-0.1-0.7-0.1-1.1-0.1
					c-0.4,0-0.7,0.1-0.9,0.3c-0.2,0.2-0.3,0.4-0.3,0.6c0,0.2,0.1,0.3,0.3,0.5c0.2,0.1,0.5,0.3,0.9,0.5l0.6,0.4
					c0.8,0.4,1.4,0.8,1.9,1.2c0.5,0.4,0.9,0.8,1.3,1.3c0.4,0.5,0.5,1.1,0.5,1.7c0,0.7-0.2,1.3-0.6,1.9c-0.4,0.5-1,1-1.7,1.3
					c-0.7,0.3-1.6,0.5-2.6,0.5c-0.6,0-1.3-0.1-2.1-0.3C1002.5,983.4,1001.8,983.1,1001.4,982.9z"/>
			</g>
			<g>
				<path class="st0" d="M1021,972.2l-1,2.2c-0.6-0.2-1.1-0.4-1.5-0.4c-0.3-0.1-0.7-0.1-1.1-0.1c-0.5,0-1,0.2-1.4,0.5
					c-0.4,0.3-0.8,0.7-1.1,1.3c-0.3,0.6-0.4,1.2-0.4,1.9c0,0.7,0.1,1.4,0.4,1.9c0.3,0.6,0.7,1,1.1,1.3c0.5,0.3,1,0.4,1.5,0.4
					c0.8,0,1.6-0.2,2.3-0.7l1.2,2.4c-0.5,0.3-1,0.5-1.7,0.7c-0.7,0.2-1.3,0.2-2,0.2c-1.3,0-2.4-0.3-3.4-0.8c-1-0.5-1.7-1.3-2.2-2.2
					c-0.5-0.9-0.8-2-0.8-3.3c0-1.2,0.3-2.3,0.8-3.3c0.5-1,1.3-1.7,2.2-2.3c1-0.5,2-0.8,3.2-0.8c0.6,0,1.3,0.1,1.9,0.3
					C1020,971.6,1020.6,971.8,1021,972.2z"/>
			</g>
			<g>
				<path class="st0" d="M1021.5,983.6l4.6-12.2h3.3l4.6,12.1l-3.2,0.3l-0.9-2.6h-4.2l-0.8,2.4H1021.5z M1026.5,978.6h2.4l-1.2-3.3
					L1026.5,978.6z"/>
			</g>
			<g>
				<path class="st0" d="M1038.8,980.1v3.6h-3.3v-12.2h5.1c0.9,0,1.8,0.2,2.5,0.5c0.8,0.3,1.4,0.8,1.8,1.5c0.4,0.7,0.7,1.5,0.7,2.4
					c0,0.9-0.2,1.7-0.7,2.4c-0.5,0.6-1.1,1.1-1.9,1.4c-0.8,0.3-1.6,0.5-2.6,0.5H1038.8z M1040.6,974h-1.8v3.5h1.8
					c0.5,0,0.9-0.2,1.2-0.5c0.3-0.3,0.5-0.7,0.5-1.2c0-0.6-0.2-1-0.5-1.3C1041.6,974.1,1041.1,974,1040.6,974z"/>
			</g>
			<g>
				<path class="st0" d="M1056.2,981l0.3,2.6h-9v-12.2h8.1l0.3,2.6h-5.1v2.2h3.8l0.3,2.6h-4.1v2.3H1056.2z"/>
			</g>
		</g>
		<g>
			<g>
				<path class="st0" d="M951,997.9h3.8l0.3,2.6H951v4.6h-3.3v-12.2h7.9l0.3,2.6h-5V997.9z"/>
			</g>
			<g>
				<path class="st0" d="M961.1,992.8v12.2h-3.3v-12.2H961.1z"/>
			</g>
			<g>
				<path class="st0" d="M967.2,1002.5h5.2l0.3,2.6h-8.8v-12.2h3.3V1002.5z"/>
			</g>
			<g>
				<path class="st0" d="M982.5,999.2l-1.7,2.2l-1.3,0.2l-2-2.4v5.9h-3.3v-12.2h2.2l3.7,4.7l3.4-4.7h2.2v12.2h-3.3V999.2z"/>
			</g>
			<g>
				<path class="st0" d="M987.8,1004.3l1.1-2.5c0.3,0.2,0.8,0.4,1.3,0.5c0.6,0.2,1.1,0.2,1.5,0.2c0.5,0,0.9-0.1,1.2-0.3
					c0.3-0.2,0.4-0.4,0.4-0.7c0-0.2-0.1-0.3-0.3-0.5c-0.2-0.2-0.5-0.4-1-0.6l-0.6-0.3c-0.8-0.5-1.5-0.9-1.9-1.2
					c-0.5-0.3-0.9-0.7-1.2-1.2c-0.4-0.5-0.5-1.1-0.5-1.7c0-0.7,0.2-1.3,0.6-1.8c0.4-0.5,0.9-0.9,1.6-1.3c0.7-0.3,1.5-0.4,2.4-0.4
					c0.6,0,1.3,0.1,1.9,0.3c0.7,0.2,1.2,0.4,1.7,0.7l-1,2.2c-0.6-0.2-1.1-0.4-1.5-0.4c-0.3-0.1-0.7-0.1-1.1-0.1
					c-0.4,0-0.7,0.1-0.9,0.3c-0.2,0.2-0.3,0.4-0.3,0.6c0,0.2,0.1,0.3,0.3,0.5c0.2,0.1,0.5,0.3,0.9,0.5l0.6,0.4
					c0.8,0.4,1.4,0.8,1.9,1.2c0.5,0.4,0.9,0.8,1.3,1.3c0.4,0.5,0.5,1.1,0.5,1.7c0,0.7-0.2,1.3-0.6,1.9c-0.4,0.5-1,1-1.7,1.3
					c-0.7,0.3-1.6,0.5-2.6,0.5c-0.6,0-1.3-0.1-2.1-0.3C988.9,1004.8,988.3,1004.6,987.8,1004.3z"/>
			</g>
		</g>
		<g>
			<rect x="946.3" y="986.9" class="st0" width="110.6" height="2.7"/>
		</g>
		<g>
			<rect x="946.3" y="1008.3" class="st0" width="50.3" height="2.7"/>
		</g>
	</g>
	<g>
		<g>
			<g>
				<path class="st0" d="M1358.3,977.7c0,1.4,0,2.7,0,4.1c0,0.5,0.1,0.6,0.6,0.6c0.8,0,1.5,0,2.3,0c0.3,0,0.4,0.1,0.4,0.4
					c0,1,0,1.9,0,2.9c0,0.4-0.2,0.5-0.5,0.5c-0.8,0-1.5,0-2.3,0c-0.3,0-0.5,0.1-0.5,0.4c0,1.6,0,3.2,0,4.9c0,1.2,0.4,1.5,1.6,1.5
					c0.4,0,0.9-0.1,1.3-0.3c0.2-0.1,0.3,0,0.3,0.2c0,0.8,0,1.7,0,2.5c0,0.3-0.1,0.3-0.3,0.4c-0.6,0.4-1.3,0.4-1.9,0.6
					c-0.6,0-1.3,0-1.9,0c0-0.1-0.1-0.1-0.2-0.1c-2-0.4-2.8-1.8-2.8-3.6c0-2,0-3.9,0-5.9c0-0.5-0.1-0.7-0.7-0.7c-1,0.1-1,0-1-1
					c0-0.8,0-1.6,0-2.4c0-0.3,0.1-0.4,0.4-0.4c0.4,0,0.9,0.2,1.2-0.1c0.3-0.3,0.1-0.8,0.1-1.2c0-1.1,0-2.2,0-3.3
					C1355.7,977.7,1357,977.7,1358.3,977.7z"/>
			</g>
			<g>
				<path class="st0" d="M1370.3,988.3c-0.7-0.3-1.3-0.5-2-0.7c-0.6-0.2-1.2-0.4-1.7-0.7c-0.6-0.5-0.5-1.1,0.2-1.4
					c0.4-0.2,0.7-0.2,1.1-0.2c1.1,0.1,2.1,0.5,3.1,1.1c0.3,0.1,0.4,0.2,0.6-0.1c0.4-0.7,0.8-1.4,1.1-2.1c0.1-0.2,0.1-0.4-0.1-0.5
					c-0.5-0.3-1-0.6-1.6-0.8c-1.9-0.7-3.8-0.9-5.7-0.2c-1.7,0.7-2.6,2-2.7,3.9c-0.1,1.8,0.8,2.9,2.4,3.6c0.9,0.4,1.8,0.6,2.7,0.9
					c0.5,0.1,1,0.3,1.4,0.5c0.3,0.2,0.6,0.5,0.5,0.9c0,0.5-0.3,0.7-0.7,0.8c-0.4,0.1-0.8,0.1-1.2,0.1c-1.3-0.1-2.5-0.6-3.6-1.4
					c-0.4-0.3-0.5-0.2-0.7,0.2c-0.4,0.6-0.8,1.2-1.2,1.8c-0.2,0.3-0.2,0.4,0.1,0.6c1.1,0.8,2.3,1.3,3.7,1.6c0.2,0,0.5,0,0.7,0.2
					c0.8,0,1.6,0,2.4,0c0.2-0.1,0.5-0.1,0.8-0.1c1.3-0.1,2.2-0.7,2.9-1.7c0.3-0.4,0.2-0.9,0.4-1.4c0-0.7,0-1.4,0-2.1
					C1372.8,989.6,1371.7,988.8,1370.3,988.3z"/>
			</g>
			<g>
				<path class="st0" d="M1347.5,984.9c0.8-1.6,2.1-2.4,3.9-2.5c0.4,0,0.6,0.1,0.5,0.5c0,0.9,0,1.8,0,2.8c0,0.4-0.2,0.5-0.5,0.6
					c-1.1,0-2.1,0.4-2.9,1.3c-0.7,0.9-1,2-1,3.1c0,1.7,0,3.4,0,5c0,0.4-0.1,0.5-0.5,0.5c-1,0-1.9,0-2.9,0c-0.5,0-0.5-0.2-0.5-0.6
					c0-4.2,0-8.5,0-12.7c0-0.4,0.1-0.6,0.5-0.5c1,0,2,0,2.9,0c0.4,0,0.5,0.1,0.5,0.5C1347.4,983.5,1347.5,984.2,1347.5,984.9z"/>
			</g>
			<g>
				<path class="st0" d="M1343.1,995.7c-2.5-5.8-4.9-11.5-7.4-17.3c-0.1-0.3-0.3-0.4-0.6-0.4c-0.9,0-1.9,0-2.8,0
					c-0.3,0-0.5,0.1-0.6,0.4c-0.4,0.9-0.8,1.9-1.2,2.8c-2,4.8-4.1,9.6-6.1,14.4c-0.2,0.4-0.2,0.6,0.4,0.6c1,0,1.9,0,2.9,0
					c0.4,0,0.7-0.1,0.9-0.6c0.4-1.1,0.9-2.1,1.3-3.1c0.1-0.3,0.3-0.4,0.6-0.4c2.3,0,4.5,0,6.8,0c0.3,0,0.5,0.1,0.6,0.4
					c0.4,1,0.9,2.1,1.3,3.1c0.1,0.4,0.3,0.6,0.8,0.5c0.5,0,1,0,1.5,0c0.6,0,1.1,0,1.7,0C1343.2,996.2,1343.2,996.1,1343.1,995.7z
					 M1335.7,988.6c-1.3,0-2.7,0-4,0c-0.2,0-0.3,0-0.2-0.2c0.7-1.8,1.5-3.6,2.3-5.5c0.8,1.9,1.5,3.7,2.2,5.4
					C1336,988.5,1335.9,988.6,1335.7,988.6z"/>
			</g>
		</g>
		<g>
			<g>
				<path class="st0" d="M1304.4,996.3c0,0,0,0.1,0,0.1c-0.7,0-1.4,0-2.1,0c0,0,0-0.1,0-0.1C1302.8,995.9,1304,995.9,1304.4,996.3z"
					/>
			</g>
			<g>
				<path class="st0" d="M1239.8,984.5c0-1.6,0-1.7-1.7-1.6c-1.5,0-1.3-0.2-1.3,1.3c0,2.2,0,4.5,0,6.7c0,1.5-0.9,2.5-2.3,2.7
					c-1.4,0.3-2.7-0.4-3.2-1.6c-0.2-0.6-0.3-1.2-0.3-1.8c0-2.2,0-4.5,0-6.7c0-0.5-0.2-0.6-0.7-0.6c-0.8,0-1.5,0-2.3,0
					c0,3,0,6.1,0,9.1c0.2,0.7,0.1,1.4,0.5,2c1,1.8,2.5,2.5,4.4,2.5c0,0,0,0,0,0.1c0.6,0,1.3,0,1.9,0c0,0,0-0.1,0-0.1h0
					c1.2-0.1,2.3-0.5,3.2-1.4c1.2-1.2,1.6-2.7,1.7-4.3C1239.8,988.6,1239.8,986.6,1239.8,984.5z"/>
			</g>
			<g>
				<path class="st0" d="M1317.9,996.4C1317.9,996.4,1317.9,996.4,1317.9,996.4c-0.6,0.1-1.3,0.1-1.9,0.1c0,0,0-0.1,0-0.1
					C1316.5,995.9,1317.5,996,1317.9,996.4z"/>
			</g>
			<g>
				<path class="st0" d="M1276.7,996.4C1276.7,996.4,1276.7,996.4,1276.7,996.4c0.4-0.5,1.3-0.5,1.8-0.1c0,0,0,0.1,0,0.1
					C1277.9,996.4,1277.3,996.4,1276.7,996.4z"/>
			</g>
			<g>
				<path class="st0" d="M1304.4,996.3c-0.7,0-1.4,0-2.1,0c-3.4-0.4-5.8-3.1-5.9-6.5c-0.2-4.4,3.5-7.8,8.3-7.1
					c1.3,0.2,2.4,0.6,3.5,1.4c0.4,0.3,0.5,0.5,0.1,0.8c-0.4,0.4-0.8,0.9-1.1,1.4c-0.3,0.4-0.5,0.4-0.9,0.1c-1.1-0.9-2.5-1.2-3.9-0.9
					c-1.7,0.4-2.8,1.8-2.9,3.7c-0.2,2.1,1,3.9,2.9,4.4c1.1,0.3,2.3,0.2,3.3-0.4c0.4-0.2,0.5-0.4,0.5-0.8c0-1.6,0.2-1.3-1.3-1.4
					c-0.4,0-0.8,0-1.2,0c-0.3,0-0.5-0.1-0.5-0.5c0-0.6,0-1.1,0-1.7c0-0.3,0.2-0.4,0.4-0.4c1.6,0,3.3,0,4.9,0c0.4,0,0.5,0.2,0.5,0.5
					c0,1.6,0,3.2,0,4.8c0,0.4-0.1,0.7-0.5,0.9C1307.4,995.6,1306,996.2,1304.4,996.3z"/>
			</g>
			<g>
				<path class="st0" d="M1265.1,983.4c0-0.4-0.2-0.6-0.6-0.5c-0.6,0-1.2,0-1.8,0c-0.5,0-0.7,0.2-0.7,0.7c0,1.3,0,2.7,0,4
					c0,0.5-0.1,0.7-0.6,0.7c-1.4,0-2.7,0-4.1,0c-0.5,0-0.7-0.1-0.6-0.6c0-1.4,0-2.7,0-4.1c0-0.4-0.1-0.6-0.6-0.6c-0.6,0-1.2,0-1.8,0
					c-0.5,0-0.7,0.2-0.7,0.7c0,2,0,4,0,6c0,2,0,4.1,0,6.1c0,0.5,0.2,0.6,0.6,0.6c0.6,0,1.2,0,1.8,0c0.5,0,0.6-0.1,0.6-0.6
					c0-1.4,0-2.8,0-4.2c0-0.5,0.2-0.7,0.7-0.7c1.3,0,2.6,0,3.9,0c0.7,0,0.7,0,0.7,0.8c0,1.3,0,2.6,0,3.9c0,0.8,0,0.8,0.8,0.8
					c0.6,0,1.1,0,1.7,0c0.4,0,0.5-0.1,0.5-0.5C1265.1,991.6,1265.1,987.5,1265.1,983.4z"/>
			</g>
			<g>
				<path class="st0" d="M1252.6,993.7c-0.4-0.4-0.8-0.7-1.1-1.1c-0.4-0.5-0.6-0.4-1.1,0c-2.2,2-6,1.4-6.7-2.2
					c-0.4-2.1,0.7-4.2,2.5-4.8c1.6-0.5,3-0.1,4.2,0.9c0.3,0.3,0.6,0.2,0.8-0.1c0.4-0.4,0.7-0.9,1.1-1.3c0.4-0.4,0.3-0.6-0.1-0.9
					c-2.1-1.9-6.1-2.2-8.6-0.6c-2.4,1.5-3.4,3.8-3.2,6.5c0.2,3.2,2.8,6,6,6.2l0,0v0c0,0,0,0.1,0,0.1c0.6,0,1.2,0,1.8,0
					c0,0,0-0.1,0-0.1c1.7-0.1,3.1-0.8,4.3-2C1252.8,994.1,1252.8,993.9,1252.6,993.7z"/>
			</g>
			<g>
				<path class="st0" d="M1278.5,996.4c-0.6,0-1.2,0-1.8,0c-3.3-0.3-5.9-3.1-6-6.4c-0.1-2.2,0.6-4,2.1-5.5c1.6-1.5,3.5-1.9,5.7-1.8
					c1.5,0.1,2.8,0.6,3.9,1.6c0.4,0.3,0.5,0.5,0.1,0.9c-0.4,0.4-0.7,0.8-1.1,1.3c-0.3,0.4-0.5,0.4-0.8,0.1c-0.8-0.7-1.8-1.1-2.9-1.1
					c-2.3-0.1-4.1,2-3.9,4.4c0,0.5,0.1,1.1,0.3,1.6c0.9,2.2,3.5,3.1,5.6,1.9c0.4-0.2,0.7-0.4,1-0.7c0.2-0.2,0.4-0.3,0.6,0
					c0.4,0.5,0.9,0.9,1.3,1.4c0.2,0.2,0.2,0.4,0,0.6C1281.5,995.5,1280.2,996.3,1278.5,996.4z"/>
			</g>
			<g>
				<path class="st0" d="M1266.7,989.5c0-2,0-4,0-6c0-0.5,0.1-0.7,0.6-0.6c0.6,0,1.2,0,1.8,0c0.4,0,0.5,0.1,0.5,0.5
					c0,4.1,0,8.3,0,12.4c0,0.4-0.2,0.5-0.5,0.5c-0.6,0-1.3,0-1.9,0c-0.4,0-0.6-0.2-0.6-0.6C1266.7,993.6,1266.7,991.5,1266.7,989.5z
					"/>
			</g>
			<g>
				<path class="st0" d="M1322.2,984.7c-2.2-2.2-4.9-2.6-7.8-1.6c-2.7,0.9-4.9,3.8-4.4,7.6c0.4,2.9,2.9,5.3,6,5.7c0.6,0,1.3,0,1.9,0
					c2.8-0.3,4.8-1.8,5.8-4.4C1324.7,989.2,1324.2,986.7,1322.2,984.7z M1317.1,993.7c-2.2,0-4-1.8-4-4.1c0-2.4,1.7-4.2,4.1-4.2
					c2.2,0,4,1.9,3.9,4.1C1321.1,991.9,1319.3,993.7,1317.1,993.7z"/>
			</g>
			<g>
				<path class="st0" d="M1297.1,995.6c-0.7-1.7-1.5-3.5-2.2-5.2c-1-2.4-2-4.8-3.1-7.2c-0.2-0.4-0.4-0.5-0.8-0.5c-0.5,0-1.1,0-1.6,0
					c-0.4,0-0.7,0.2-0.8,0.6c-1.2,2.8-2.4,5.7-3.6,8.5c-0.5,1.3-1.1,2.5-1.6,3.8c-0.2,0.5-0.2,0.6,0.4,0.6c0.6,0,1.3,0,1.9,0
					c0.3,0,0.5-0.1,0.7-0.5c0.2-0.7,0.5-1.3,0.8-2c0.2-0.4,0.4-0.6,0.9-0.6c1.1,0,2.3,0,3.4,0c1.6,0,1.6,0,2.2,1.6
					c0.7,1.7,0.3,1.4,2.1,1.4c0.3,0,0.6,0,0.9,0C1297.3,996.2,1297.3,996.2,1297.1,995.6z M1291.5,990.6c-0.9,0-1.8,0-2.7,0
					c-0.3,0-0.3-0.1-0.2-0.4c0.5-1.2,1-2.4,1.5-3.7c0,0,0.1,0,0.1,0c0.5,1.2,1,2.4,1.5,3.7C1291.9,990.4,1291.8,990.6,1291.5,990.6z
					"/>
			</g>
		</g>
	</g>
</g>
</svg>
